<?xml version="1.0" encoding="utf-8"?>
<!-- Generator: Adobe Illustrator 24.2.3, SVG Export Plug-In . SVG Version: 6.00 Build 0)  -->
<svg version="1.1" id="Layer_1" xmlns="http://www.w3.org/2000/svg" xmlns:xlink="http://www.w3.org/1999/xlink" x="0px" y="0px"
	 viewBox="0 0 395.68 203.39" style="enable-background:new 0 0 395.68 203.39;" xml:space="preserve">
<style type="text/css">
	.st0{fill:#121626;}
	.st1{fill:#FFFAF7;}
	.st2{opacity:0.33;}
	.st3{fill:#63D0EF;}
	.st4{fill:#FFFFFF;}
</style>
<rect id="XMLID_875_" x="-339.4" y="-148.1" class="st0" width="1600" height="1203.25"/>
<path id="XMLID_864_" class="st1" d="M692.25,322.85h-988.82c-10.49,0-19-8.51-19-19v-404.31c0-10.49,8.51-19,19-19h988.82
	c10.49,0,19,8.51,19,19v404.31C711.25,314.34,702.74,322.85,692.25,322.85z"/>
<g id="XMLID_855_">
	<defs>
		<path id="XMLID_858_" d="M692.25,322.85h-988.82c-10.49,0-19-8.51-19-19v-404.31c0-10.49,8.51-19,19-19h988.82
			c10.49,0,19,8.51,19,19v404.31C711.25,314.34,702.74,322.85,692.25,322.85z"/>
	</defs>
	<use xlink:href="#XMLID_858_"  style="overflow:visible;fill:#121626;"/>
	<clipPath id="XMLID_3_">
		<use xlink:href="#XMLID_858_"  style="overflow:visible;"/>
	</clipPath>
</g>
<g id="XMLID_28_" class="st2">
	<defs>
		<path id="XMLID_1_" class="st2" d="M692.25,322.85h-988.82c-10.49,0-19-8.51-19-19v-404.31c0-10.49,8.51-19,19-19h988.82
			c10.49,0,19,8.51,19,19v404.31C711.25,314.34,702.74,322.85,692.25,322.85z"/>
	</defs>
	<clipPath id="XMLID_4_">
		<use xlink:href="#XMLID_1_"  style="overflow:visible;"/>
	</clipPath>
</g>
<g id="XMLID_67_">
	<g id="XMLID_97_">
		<path id="XMLID_114_" class="st4" d="M63.27,149.59c-4.57,0-13.77-2.19-19.35-3.51c0,5.07,0,11.77,0,20.6
			c0,2.76,2.76,4.01,4.13,4.01H33.53c1.38,0,4.13-1.25,4.13-4.01v-21.54c-3.51-0.06-6.64,0.75-8.96,3.57c0,0,2.5-5.82,8.96-6.33
			v-14.66c0-2.76-2.76-4.01-4.13-4.01h14.53c-1.38,0-4.13,1.25-4.13,4.01c0,1.82,0,1.32,0,15.09c6.33,1.13,15.72,3.76,20.98,3.76
			c1,0,2-0.06,2.94-0.31v-18.54c0-2.76-2.76-4.01-4.13-4.01h14.53c-1.38,0-4.13,1.25-4.13,4.01c0,2.57,0,0.56,0,38.96
			c0,2.76,2.76,4.01,4.13,4.01H63.71c1.38,0,4.13-1.25,4.13-4.01v-18.04C66.53,149.28,65.02,149.59,63.27,149.59z"/>
		<path id="XMLID_111_" class="st4" d="M100.52,123.73h5.77c6.04,16.24,16.24,39.93,17.25,42.41c1.54,3.82,4.29,4.56,5.3,4.56
			h-15.57c1.61-0.4,4.09-1.54,2.82-4.7l-4.56-11.14H89.45l-5.23,12.75c-0.74,1.88,0,2.68,1.61,3.09h-6.91
			c1.01-0.27,3.15-0.81,4.16-3.35L100.52,123.73z M89.85,153.86h21.27l-10.67-26.04L89.85,153.86z"/>
		<path id="XMLID_108_" class="st4" d="M133.76,127.17c-0.19-2.07-0.5-2.69-1.25-3.44h16.41c9.58,0,17.6,5.07,17.6,13.59
			c0,8.64-7.14,14.03-15.53,14.03c5.82,0.38,11.4,2.51,16.1,11.77c5.82,11.46,11.71,15.28,17.22,15.28c4.26,0,7.83-1.44,10.58-3.88
			l0.44,0.56c-3.38,3.38-6.83,5.26-13.47,5.26c-1.88,0-14.15-0.13-21.86-14.91c-6.14-11.71-10.4-13.97-14.4-13.97
			c-4.01,0-3.44,0-5.64,0v15.22c0,2.76,2.76,4.01,4.13,4.01h-14.53c1.38,0,4.2-1.25,4.2-4.01V127.17z M139.96,150.53
			c2.32,0,0.25,0,8.02,0c6.95,0,11.65-5.32,11.65-13.21c0-8.52-4.26-12.65-10.71-12.65h-8.96V150.53z"/>
		<path id="XMLID_105_" class="st4" d="M174.78,170.7c1.38,0,4.13-1.25,4.2-4.01v-37.01c0-4.7-1.13-4.89-3.01-5.95h9.33
			c3.38,4.63,10.58,15.53,16.85,25.18c4.63-8.64,10.71-18.73,15.03-25.18h10.4c-1.38,0-4.13,1.25-4.13,4.01v38.96
			c0,2.76,2.76,4.01,4.13,4.01h-14.53c1.38,0,4.13-1.25,4.13-4.01v-41.27c-4.26,6.58-10.02,16.16-14.4,24.49
			c0.63,1,1.32,2,1.94,2.94c2.38,3.63,3.44,6.95,3.44,9.58c0,4.95-3.01,8.27-7.45,8.27c-3.26,0-5.07-2.07-5.07-5.26
			c0-2.82,1.57-7.01,3.01-9.58c-5.7-9.96-15.91-24.61-18.73-28.68v39.52c0.25,2.69,3.01,4.01,4.38,4.01H174.78z M199.21,156.86
			c-0.25,0.63-0.56,1.25-0.81,1.82c-1.13,2.57-1.57,5.01-1.57,6.58c0,2.57,1.13,4.01,2.82,4.01c1.75,0,3.07-1.5,2.94-4.63
			C202.53,163.31,201.21,160.43,199.21,156.86z"/>
		<path id="XMLID_102_" class="st4" d="M229.98,146.53c0-14.97,9.83-24.93,22.55-24.93c12.84,0,22.55,9.96,22.55,24.93
			c0,15.09-9.71,25.05-22.55,25.05C239.82,171.58,229.98,161.62,229.98,146.53z M268.06,146.28c0-13.78-6.7-23.67-15.53-23.67
			c-8.71,0-15.53,9.9-15.53,23.67c0,13.84,6.83,24.3,15.53,24.3C261.36,170.58,268.06,160.12,268.06,146.28z"/>
		<path id="XMLID_100_" class="st4" d="M312.1,123.73h9.27c-1.38,0-4.13,1.25-4.13,4.01v42.96h-2l-33.51-41.59v37.58
			c0,2.76,2.76,4.01,4.13,4.01h-9.27c1.38,0,4.2-1.25,4.2-4.01v-39.52c0-2.07-0.31-2.69-1.06-3.44h5.7L316.3,162v-34.26
			C316.3,124.98,313.48,123.73,312.1,123.73z"/>
		<path id="XMLID_98_" class="st4" d="M329.52,128.3c-2-3.57-4.26-4.57-5.32-4.57h15.28c-1.57,0.38-4.57,1.69-2.82,4.7l12.15,21.04
			l13.09-22.67c1-1.75,0-2.69-1.57-3.07h6.64c-1,0.25-2.76,0.94-4.13,3.38l-13.4,23.3v16.28c0,2.76,2.76,4.01,4.13,4.01h-14.53
			c1.38,0,4.13-1.25,4.13-4.01v-14.47L329.52,128.3z"/>
	</g>
	<path id="XMLID_88_" class="st4" d="M210.56,57.39c-12.3,5.8-24.92,3.62-33.04,1.7v29.4c0,4.37,4.37,6.36,6.57,6.36H161
		c2.19,0,6.57-1.99,6.57-6.36V57.59c-5.57-0.1-10.54,1.19-14.22,5.67c0,0,3.98-9.25,14.22-10.04V29.41c0-4.38-4.37-6.36-6.57-6.36
		h23.09c-2.19,0-6.57,1.98-6.57,6.36v24.51C184.04,58.95,210.56,57.39,210.56,57.39z"/>
	<path id="XMLID_87_" class="st4" d="M232.38,94.85h-23.08c0.36,0,0.79-0.06,1.24-0.17c3.08-0.76,5.16-3.65,5.16-6.83v-3.39
		c0.03-2.08-0.16-3.45,1.74-4.8c1.11-0.8,0.8-1.32,0-2.01c-0.79-0.68,1.8-1.63,1.17-3.06c-0.64-1.42-1.64-2.37-0.27-4.01
		c1.38-1.63,2.22-2.27,0.8-4.12c-1.07-1.38-2.32-4.28-3.27-7.7c-0.32-1.14-0.09-24.37,0-24.34v-5.01c0-4.38-4.38-6.36-6.57-6.36
		h23.08c-2.19,0-6.57,1.98-6.57,6.36v59.08C225.82,92.86,230.2,94.85,232.38,94.85z"/>
</g>
</svg>
